<?xml version="1.0" standalone="no"?>
<!DOCTYPE svg PUBLIC "-//W3C//DTD SVG 20010904//EN"
 "http://www.w3.org/TR/2001/REC-SVG-20010904/DTD/svg10.dtd">
<svg version="1.0" xmlns="http://www.w3.org/2000/svg"
 width="772.000000pt" height="1012.000000pt" viewBox="0 0 772.000000 1012.000000"
 preserveAspectRatio="xMidYMid meet">
<metadata>
Created by potrace 1.16, written by Peter Selinger 2001-2019
</metadata>
<g transform="translate(0.000000,1012.000000) scale(0.100000,-0.100000)"
fill="#000000" stroke="none">
<path d="M3820 9629 c-41 -10 -87 -19 -101 -19 -15 0 -32 -6 -38 -14 -7 -8
-27 -17 -47 -20 -62 -12 -160 -90 -209 -167 -24 -38 -70 -65 -127 -75 -139
-25 -358 -208 -435 -364 -7 -14 -17 -32 -22 -40 -22 -35 -49 -98 -56 -130 -4
-19 -13 -44 -20 -55 -7 -11 -16 -45 -20 -75 -3 -30 -13 -85 -22 -122 -20 -87
-13 -339 12 -446 18 -77 19 -69 -16 -218 -11 -44 -10 -58 4 -95 9 -24 20 -66
23 -94 4 -27 13 -60 20 -72 18 -28 17 -53 -1 -76 -7 -11 -17 -37 -21 -60 -3
-23 -12 -51 -19 -62 -7 -11 -16 -42 -19 -70 -4 -27 -14 -81 -23 -119 -17 -73
-14 -118 21 -276 43 -194 163 -371 331 -490 72 -50 218 -120 251 -120 11 0 29
-6 39 -14 17 -12 18 -20 7 -122 -21 -190 -31 -256 -47 -286 -8 -17 -17 -45
-21 -64 -3 -18 -12 -38 -20 -45 -8 -6 -14 -17 -14 -23 0 -11 -39 -71 -75 -117
-40 -49 -164 -140 -253 -184 -50 -25 -95 -45 -101 -45 -6 0 -30 -9 -53 -19
-24 -10 -68 -29 -98 -41 -30 -12 -74 -31 -98 -41 -23 -10 -50 -19 -60 -19 -9
-1 -35 -9 -57 -20 -22 -11 -46 -19 -52 -20 -7 0 -32 -8 -55 -19 -55 -24 -97
-39 -177 -62 -36 -10 -69 -23 -75 -29 -5 -5 -18 -10 -28 -10 -10 0 -35 -9 -55
-20 -21 -11 -46 -20 -55 -20 -10 0 -35 -9 -55 -20 -21 -11 -43 -20 -50 -20
-17 0 -157 -75 -202 -107 -89 -65 -227 -223 -246 -282 -3 -12 -10 -21 -15 -21
-4 0 -15 -18 -23 -39 -9 -22 -21 -42 -27 -46 -5 -3 -10 -13 -10 -22 0 -9 -8
-34 -19 -57 -24 -55 -58 -161 -67 -211 -4 -22 -13 -54 -21 -72 -7 -18 -13 -49
-13 -70 0 -21 -7 -67 -16 -103 -11 -47 -17 -167 -24 -445 -5 -209 -16 -438
-24 -510 -8 -71 -17 -179 -21 -240 -3 -60 -10 -128 -15 -150 -6 -22 -15 -104
-20 -182 -6 -79 -15 -155 -21 -170 -6 -16 -15 -80 -20 -143 -5 -63 -15 -146
-23 -185 -8 -38 -17 -116 -21 -171 -3 -56 -10 -117 -16 -135 -5 -19 -14 -90
-20 -159 -5 -68 -16 -149 -23 -180 -8 -30 -17 -93 -20 -140 -3 -47 -11 -101
-16 -120 -19 -62 -31 -209 -19 -231 14 -28 50 -21 60 11 30 106 38 144 43 211
3 42 10 89 16 105 6 16 16 80 21 144 5 63 14 131 20 150 5 19 14 87 19 150 6
63 16 149 24 190 8 41 17 120 21 175 4 55 12 127 20 160 7 33 16 106 19 161 4
56 11 117 17 135 5 19 14 95 20 169 6 74 15 153 20 175 10 40 26 331 53 930 8
171 19 323 25 338 6 16 16 60 22 99 6 38 17 84 24 101 7 18 16 53 19 79 4 25
14 52 21 58 8 7 15 21 15 32 0 48 123 270 189 341 79 86 253 190 356 213 17 4
45 15 62 26 36 21 53 17 53 -13 0 -11 7 -33 15 -50 9 -16 20 -76 25 -132 5
-56 15 -118 22 -137 10 -26 13 -124 13 -390 0 -298 -3 -365 -17 -420 -9 -36
-19 -99 -23 -140 -4 -41 -12 -84 -18 -95 -6 -11 -13 -51 -16 -89 -3 -38 -11
-71 -17 -73 -7 -2 -19 25 -30 63 -20 72 -54 108 -77 85 -9 -9 -7 -26 11 -74
49 -132 62 -192 51 -228 -32 -109 -38 -211 -24 -440 13 -225 9 -331 -15 -409
-6 -19 -15 -78 -21 -131 -5 -54 -16 -116 -24 -139 -8 -23 -15 -59 -15 -79 0
-20 -7 -65 -15 -101 -9 -36 -20 -105 -26 -155 -5 -49 -16 -115 -24 -146 -8
-31 -15 -74 -15 -95 0 -22 -7 -68 -15 -104 -8 -36 -19 -105 -25 -155 -6 -49
-17 -112 -24 -140 -8 -27 -16 -84 -20 -126 -3 -42 -10 -89 -17 -105 -6 -16
-15 -69 -20 -119 -5 -49 -16 -119 -24 -156 -9 -36 -15 -90 -13 -120 3 -50 5
-54 30 -57 42 -5 58 30 69 150 5 57 16 128 24 159 8 31 15 74 15 95 0 22 7 68
15 104 9 36 20 106 25 155 6 50 17 110 24 135 8 25 17 79 21 120 3 41 12 98
20 125 7 28 16 85 20 128 3 43 11 90 16 105 6 15 15 72 20 126 4 55 15 120 23
145 8 25 17 78 19 117 5 61 12 108 34 223 7 38 23 6 23 -47 0 -23 6 -58 14
-77 8 -19 18 -56 21 -82 4 -26 15 -74 26 -106 10 -31 19 -66 19 -78 0 -11 5
-30 12 -42 6 -12 17 -47 24 -77 7 -30 19 -73 28 -95 8 -22 15 -53 16 -68 0
-15 6 -40 14 -55 8 -15 17 -50 21 -77 4 -28 13 -61 20 -75 7 -14 16 -50 20
-80 4 -30 13 -69 20 -86 7 -17 16 -59 20 -94 4 -35 13 -77 20 -94 7 -17 16
-58 20 -91 4 -33 13 -80 21 -105 17 -56 34 -280 34 -463 0 -76 5 -147 10 -158
12 -21 50 -25 68 -7 18 18 17 472 -2 525 -8 22 -17 75 -21 119 -4 43 -13 94
-21 112 -7 19 -17 64 -20 100 -4 37 -13 79 -20 94 -8 14 -17 53 -20 85 -4 32
-12 69 -19 83 -7 14 -16 48 -20 75 -4 28 -13 61 -20 75 -7 14 -16 48 -20 75
-4 28 -14 62 -21 76 -7 15 -16 46 -20 70 -4 24 -12 55 -19 69 -7 14 -16 48
-20 75 -4 28 -13 61 -20 75 -7 14 -16 47 -20 75 -4 27 -13 61 -20 76 -8 14
-17 50 -20 80 -4 30 -13 70 -20 90 -8 20 -17 65 -21 100 -4 35 -13 81 -20 101
-7 21 -16 77 -19 125 -4 48 -13 129 -21 178 -8 50 -14 125 -14 169 0 69 3 82
25 108 29 34 139 128 151 128 4 0 16 7 26 17 20 18 49 36 88 54 14 6 41 20 61
30 20 11 45 19 56 19 10 0 46 10 78 21 53 19 75 21 180 16 76 -3 133 -11 157
-21 21 -9 51 -16 68 -16 17 0 47 -8 68 -19 20 -10 51 -22 69 -25 17 -4 37 -14
44 -22 6 -8 19 -14 29 -14 9 0 28 -8 41 -18 13 -10 35 -23 49 -30 29 -14 41
-21 135 -82 38 -25 77 -52 86 -60 9 -8 39 -33 65 -55 70 -57 343 -332 384
-388 56 -75 89 -62 210 85 98 117 267 277 385 363 11 8 34 26 51 40 18 14 35
25 40 25 4 0 16 7 26 17 19 17 45 33 88 55 14 7 36 20 49 30 13 10 30 18 38
18 8 0 26 9 40 20 14 11 34 20 44 20 11 0 36 9 56 20 21 11 50 20 65 20 15 0
47 8 70 18 62 25 318 25 365 -1 18 -9 42 -17 54 -17 20 0 90 -28 129 -51 8 -5
29 -16 46 -24 17 -7 36 -21 44 -29 7 -9 18 -16 24 -16 7 0 45 -31 86 -69 l75
-69 -2 -169 c0 -94 -6 -180 -12 -196 -6 -15 -15 -68 -21 -116 -5 -49 -17 -105
-25 -124 -8 -20 -15 -54 -15 -74 0 -21 -7 -63 -15 -93 -8 -30 -20 -80 -25
-110 -6 -30 -17 -75 -24 -100 -18 -57 -44 -161 -57 -225 -6 -27 -16 -61 -24
-75 -7 -14 -16 -47 -20 -75 -4 -27 -13 -62 -21 -77 -8 -15 -14 -38 -14 -52 0
-14 -9 -52 -19 -83 -11 -32 -23 -78 -26 -103 -4 -25 -13 -56 -20 -70 -7 -14
-16 -52 -20 -84 -4 -33 -13 -73 -20 -90 -7 -17 -18 -65 -24 -106 -6 -41 -15
-97 -20 -125 -23 -117 -44 -311 -48 -461 -5 -155 -5 -162 16 -183 24 -24 53
-27 69 -9 5 8 12 115 15 248 4 160 10 253 20 290 8 30 18 84 22 120 3 35 12
78 19 95 7 16 16 59 20 93 4 35 12 76 18 90 6 15 16 56 23 92 7 36 17 79 23
95 6 17 17 59 26 95 9 36 23 90 31 120 7 30 21 84 30 120 9 36 23 81 30 100 8
19 17 55 21 80 3 25 12 56 19 70 7 14 15 49 19 78 4 29 13 67 21 85 8 18 17
62 20 99 12 125 41 87 52 -66 3 -50 12 -109 20 -130 7 -21 16 -71 19 -110 3
-39 12 -91 19 -116 8 -25 18 -85 24 -135 5 -49 14 -103 20 -119 7 -16 14 -63
17 -105 3 -42 12 -98 20 -125 8 -27 17 -85 20 -130 3 -45 12 -103 20 -131 7
-27 18 -98 23 -156 6 -58 15 -118 21 -133 5 -15 14 -85 19 -154 5 -70 14 -139
20 -154 12 -32 58 -49 72 -27 14 22 11 129 -5 190 -8 31 -19 107 -25 170 -5
63 -15 127 -21 143 -6 16 -13 69 -17 120 -3 50 -12 108 -19 129 -8 21 -16 75
-20 120 -3 45 -10 96 -16 112 -6 17 -16 75 -24 130 -7 55 -20 129 -28 165 -9
36 -16 86 -16 111 0 26 -7 65 -15 88 -8 23 -19 81 -24 129 -6 48 -17 112 -26
142 -8 30 -15 76 -15 101 0 26 -10 87 -21 136 -24 98 -22 197 6 348 17 93 20
258 5 285 -16 30 -41 191 -35 221 4 15 13 33 20 39 8 7 18 34 21 61 4 27 13
54 20 60 21 17 18 59 -4 59 -28 0 -60 -40 -71 -88 -5 -24 -12 -46 -15 -50 -16
-16 -37 31 -45 99 -5 42 -14 85 -20 97 -6 12 -16 82 -21 155 -6 72 -14 159
-20 192 -13 77 -13 390 0 475 6 36 14 119 20 186 5 66 14 134 21 150 6 16 15
62 20 102 4 40 11 77 14 82 9 14 52 12 78 -4 12 -8 38 -17 58 -20 21 -4 42
-13 49 -21 7 -8 23 -15 35 -15 12 0 34 -9 48 -20 14 -11 29 -20 33 -20 29 0
179 -131 224 -195 39 -55 120 -212 120 -232 0 -9 6 -24 14 -32 8 -9 18 -36 24
-61 6 -25 17 -63 26 -85 8 -22 15 -53 16 -68 0 -15 7 -44 15 -64 8 -19 18 -68
21 -107 3 -39 12 -107 21 -151 10 -57 17 -205 23 -510 5 -236 13 -452 19 -480
6 -27 15 -117 20 -200 6 -82 17 -193 26 -245 8 -52 15 -120 15 -150 0 -30 7
-83 15 -118 8 -34 19 -117 24 -185 6 -67 14 -136 19 -153 5 -17 13 -82 17
-145 3 -63 13 -139 20 -169 8 -30 17 -91 20 -135 3 -44 13 -109 21 -145 8 -36
18 -108 23 -160 10 -100 27 -200 42 -238 7 -18 16 -23 37 -20 l27 3 -3 100
c-2 55 -9 123 -17 150 -8 28 -19 102 -24 165 -6 63 -15 131 -21 150 -6 19 -13
76 -16 125 -3 50 -12 124 -20 165 -8 41 -18 132 -24 201 -5 69 -14 138 -19
152 -6 14 -15 86 -20 159 -6 73 -15 148 -20 167 -6 18 -13 86 -17 150 -3 64
-12 152 -20 196 -9 48 -18 210 -24 405 -15 501 -38 862 -61 949 -10 41 -19 86
-19 101 0 14 -9 51 -20 83 -11 31 -20 65 -20 75 0 10 -9 35 -20 57 -11 22 -20
45 -20 53 0 22 -81 181 -128 252 -24 36 -60 82 -80 104 -50 53 -180 156 -196
156 -8 0 -19 6 -25 14 -7 8 -25 18 -41 21 -16 3 -34 13 -41 21 -6 8 -21 14
-33 14 -11 0 -34 7 -51 16 -16 9 -51 22 -77 30 -26 8 -50 19 -53 24 -3 6 -17
10 -31 10 -14 0 -38 7 -53 15 -16 8 -46 19 -67 24 -53 13 -130 40 -180 62 -23
11 -47 19 -53 19 -7 0 -29 9 -49 19 -20 11 -64 29 -97 41 -33 11 -77 30 -97
40 -20 11 -43 20 -50 20 -7 0 -30 9 -51 20 -20 11 -42 20 -48 20 -6 0 -55 21
-108 46 -89 43 -204 124 -260 184 -29 31 -91 124 -91 136 0 6 -9 27 -20 49
-11 22 -20 48 -20 60 0 11 -9 47 -19 80 -13 42 -20 100 -22 195 l-4 134 30 9
c17 5 37 13 45 18 8 5 26 14 40 19 35 14 77 37 140 78 94 62 255 238 275 303
4 13 13 31 20 39 7 8 16 26 20 40 3 14 12 39 20 55 18 40 45 191 45 252 0 87
-47 296 -83 371 -8 16 -8 31 0 55 6 18 15 52 18 76 4 24 14 59 21 77 16 38 19
230 5 280 -5 19 -5 85 1 164 10 131 8 161 -22 410 -6 47 -17 101 -25 120 -8
19 -17 51 -20 70 -4 19 -13 44 -20 55 -7 11 -16 35 -19 52 -4 17 -13 37 -21
43 -8 6 -17 24 -20 40 -3 16 -12 34 -20 40 -8 6 -17 25 -20 41 -4 16 -12 32
-18 36 -7 5 -29 33 -49 63 -82 123 -275 292 -408 357 -14 7 -32 17 -40 22 -54
35 -179 78 -280 97 -41 7 -93 18 -115 24 -61 15 -162 11 -245 -11z m340 -104
c25 -7 65 -16 90 -20 25 -4 54 -13 65 -19 11 -7 36 -16 56 -20 21 -3 42 -13
49 -21 7 -8 16 -15 21 -15 12 0 51 -18 80 -38 14 -9 40 -27 58 -38 126 -83
273 -248 327 -366 8 -18 18 -40 23 -48 31 -50 77 -178 96 -265 7 -33 18 -73
26 -90 9 -21 13 -101 15 -270 l3 -239 -44 -43 c-25 -24 -45 -52 -45 -63 0 -28
-19 -62 -30 -55 -4 3 -11 24 -15 48 -4 23 -16 58 -26 77 -11 19 -19 44 -19 55
0 11 -6 29 -14 40 -7 11 -19 37 -25 58 -7 20 -17 37 -22 37 -5 0 -9 5 -9 11 0
23 -75 125 -136 185 -64 62 -235 184 -258 184 -7 0 -24 8 -37 18 -13 11 -37
22 -54 26 -16 4 -37 13 -45 21 -8 7 -33 16 -54 20 -22 3 -49 13 -60 21 -11 8
-33 14 -48 14 -15 0 -49 8 -75 19 -26 10 -75 22 -108 26 -33 4 -68 11 -79 17
-10 5 -47 14 -83 19 -36 5 -74 16 -86 24 -12 8 -32 15 -44 15 -12 0 -30 8 -40
19 -10 10 -27 22 -38 25 -31 11 -85 84 -85 116 0 15 -9 47 -20 71 -15 34 -20
66 -20 136 0 85 2 95 29 135 16 24 45 57 63 74 37 35 136 84 168 84 12 0 31 5
43 11 48 27 324 29 407 4z m-784 -306 c2 -108 20 -178 71 -286 16 -32 15 -33
-19 -75 -19 -24 -39 -50 -44 -59 -5 -10 -31 -43 -59 -75 -27 -31 -57 -67 -65
-79 -56 -83 -76 -116 -115 -194 -25 -48 -45 -94 -45 -102 0 -8 -7 -22 -15 -32
-7 -11 -17 -38 -20 -60 -4 -23 -14 -54 -21 -69 -8 -15 -14 -37 -14 -50 -1 -13
-8 -41 -16 -63 -9 -22 -23 -76 -32 -120 -18 -84 -39 -105 -52 -54 -4 14 -33
59 -64 100 l-58 74 4 275 c2 199 7 281 16 297 7 13 17 49 23 80 6 32 17 65 24
73 7 8 16 29 20 47 3 17 13 37 21 44 8 6 14 16 14 22 0 32 120 176 205 247 47
39 205 111 230 106 6 -2 10 -23 11 -47z m181 -403 c15 -13 39 -27 53 -31 14
-4 32 -13 40 -20 8 -7 34 -15 56 -19 23 -3 54 -13 70 -21 16 -8 40 -15 54 -15
14 0 50 -7 80 -16 30 -8 81 -19 113 -25 32 -5 71 -16 87 -24 16 -8 40 -15 52
-15 13 0 40 -8 61 -19 20 -10 52 -22 71 -25 19 -4 39 -13 46 -21 7 -8 20 -15
30 -15 9 0 29 -9 43 -20 14 -11 29 -20 34 -20 6 0 21 -9 34 -20 13 -11 49 -39
79 -63 75 -59 166 -169 201 -244 16 -34 29 -68 29 -75 0 -7 7 -21 15 -31 7
-11 17 -37 21 -60 3 -23 12 -51 20 -62 36 -56 38 -399 1 -471 -8 -16 -17 -49
-21 -74 -4 -24 -11 -49 -17 -56 -5 -6 -14 -40 -20 -75 -6 -35 -17 -74 -25 -86
-8 -12 -14 -32 -14 -44 0 -35 -83 -209 -145 -304 -40 -62 -141 -181 -208 -244
-39 -36 -77 -73 -86 -82 -15 -14 -37 -30 -100 -71 -66 -43 -131 -71 -185 -78
-69 -10 -205 3 -244 23 -15 8 -38 20 -52 26 -14 6 -34 16 -45 23 -61 38 -101
64 -105 69 -3 3 -31 29 -64 58 -62 57 -126 127 -166 185 -14 20 -33 46 -42 58
-10 11 -18 26 -18 33 0 7 -9 20 -20 30 -11 10 -20 22 -20 27 0 6 -9 21 -20 35
-11 14 -20 34 -20 43 0 10 -7 23 -15 30 -8 7 -17 27 -21 46 -3 19 -15 51 -25
71 -11 21 -19 48 -19 61 0 12 -7 36 -15 51 -8 16 -17 48 -21 72 -3 24 -14 65
-25 91 -10 26 -19 58 -19 73 0 14 -7 42 -15 62 -8 19 -18 73 -21 118 -6 71 -4
89 14 126 11 24 23 70 26 102 4 32 12 71 20 85 7 15 16 49 20 76 3 27 13 60
21 72 8 13 15 34 15 47 0 12 9 40 19 61 11 21 23 52 27 69 4 18 15 48 25 67
11 19 19 40 19 46 0 6 6 17 14 23 8 7 17 23 20 36 7 27 73 128 143 218 27 34
62 83 78 109 17 26 35 47 42 48 6 0 24 -11 40 -24z m-695 -940 c6 -22 20 -49
29 -58 10 -10 20 -37 23 -60 3 -24 8 -59 11 -78 3 -19 11 -78 19 -130 8 -52
19 -111 25 -130 15 -47 15 -47 -14 -20 -14 13 -25 31 -25 41 0 10 -4 21 -10
24 -18 11 -62 115 -67 158 -3 23 -12 55 -20 71 -16 31 -30 203 -19 231 10 26
33 2 48 -49z m2209 -78 c-6 -78 -16 -138 -25 -157 -9 -16 -16 -45 -16 -63 0
-18 -7 -44 -15 -58 -8 -14 -19 -34 -24 -45 -16 -32 -79 -101 -86 -93 -3 3 0
19 8 35 8 15 17 49 20 76 4 26 13 61 22 77 10 19 15 59 16 117 0 85 2 90 40
146 21 32 39 66 39 76 0 10 3 21 7 24 18 19 23 -21 14 -135z m-2215 -375 c13
-33 42 -71 94 -123 67 -66 79 -84 100 -145 13 -39 31 -86 42 -106 10 -20 18
-44 18 -52 0 -9 6 -22 14 -30 8 -8 22 -29 31 -48 18 -38 28 -56 70 -118 17
-24 35 -51 40 -60 6 -9 18 -27 27 -41 11 -17 18 -57 21 -125 3 -55 9 -111 13
-124 6 -22 5 -23 -17 -17 -13 4 -42 12 -64 17 -22 6 -47 16 -55 23 -8 7 -26
18 -40 24 -73 37 -101 57 -168 124 -61 62 -92 99 -92 111 0 5 -9 20 -20 34
-11 14 -20 34 -20 43 0 10 -7 23 -15 30 -8 7 -17 28 -21 49 -4 20 -14 50 -23
66 -23 44 -22 336 2 385 10 18 17 52 17 75 0 71 21 75 46 8z m2214 -32 c0 -21
7 -56 16 -77 19 -44 22 -281 4 -313 -5 -11 -15 -42 -21 -71 -20 -96 -112 -244
-200 -325 -44 -41 -150 -115 -163 -115 -5 0 -19 -9 -33 -20 -14 -11 -34 -20
-45 -20 -10 0 -21 -7 -24 -15 -4 -8 -14 -15 -23 -15 -14 0 -16 14 -13 118 l4
117 46 70 c26 39 49 72 53 75 3 3 14 19 23 35 9 17 28 48 41 70 13 22 27 47
30 55 4 8 15 33 25 55 44 94 59 133 68 180 8 38 18 56 44 75 42 32 108 98 108
109 0 16 42 61 51 56 5 -4 9 -23 9 -44z m-1622 -862 c23 -33 212 -179 230
-179 5 0 21 -9 35 -20 14 -11 40 -23 59 -27 18 -3 45 -12 60 -19 17 -9 61 -14
119 -14 76 0 104 5 158 26 90 36 169 90 272 184 48 44 89 80 91 80 2 0 2 -78
0 -172 -3 -107 0 -194 7 -228 7 -30 18 -98 26 -150 13 -89 28 -141 69 -233 24
-54 107 -157 163 -203 27 -21 53 -43 58 -49 6 -6 28 -23 50 -38 86 -58 89 -61
75 -88 -39 -72 -247 -269 -285 -269 -7 0 -20 -9 -30 -20 -10 -11 -24 -20 -32
-20 -8 0 -31 -8 -51 -19 -80 -40 -112 -54 -149 -61 -21 -5 -56 -15 -78 -24
-22 -8 -58 -15 -79 -16 -22 0 -82 -7 -133 -17 -81 -14 -107 -15 -201 -4 -59 7
-143 16 -187 21 -44 4 -93 15 -110 24 -16 9 -46 16 -65 16 -19 0 -49 8 -65 18
-17 11 -47 22 -67 26 -20 3 -41 13 -48 21 -7 8 -20 15 -30 15 -9 0 -29 9 -43
20 -14 11 -28 20 -32 20 -7 0 -43 27 -109 82 -49 42 -153 169 -158 192 -2 13
18 33 72 70 93 63 228 196 260 256 33 61 64 141 84 220 26 98 40 338 28 477
-5 65 -8 121 -5 126 6 9 24 -2 41 -24z m-548 -1158 c0 -9 72 -101 125 -159 38
-42 159 -142 172 -142 6 0 21 -8 34 -18 13 -10 53 -31 89 -46 36 -15 79 -33
95 -41 41 -18 152 -49 255 -71 60 -13 141 -19 273 -22 164 -3 197 -1 267 17
44 12 91 21 105 21 14 0 43 9 65 20 22 11 47 20 56 20 14 0 135 57 233 109 71
38 221 178 294 274 27 36 47 41 47 11 0 -8 -11 -24 -24 -35 -14 -12 -30 -35
-37 -51 -6 -16 -24 -35 -40 -43 -15 -8 -36 -28 -46 -45 -9 -16 -25 -33 -35
-36 -10 -3 -26 -16 -36 -29 -11 -13 -31 -29 -45 -36 -13 -6 -30 -22 -36 -35
-7 -17 -19 -24 -39 -24 -18 0 -38 -10 -56 -29 -23 -23 -35 -29 -56 -24 -21 4
-35 -2 -61 -25 -29 -26 -32 -32 -20 -46 19 -23 58 -20 85 8 14 13 41 25 65 29
22 3 53 14 70 26 23 17 35 19 54 12 31 -12 128 -4 182 15 22 7 77 18 123 24
86 10 102 15 102 31 0 16 -200 11 -260 -7 -88 -25 -130 -29 -130 -11 0 17 37
47 57 47 21 0 100 84 117 123 8 21 25 41 37 45 12 5 34 26 48 48 32 47 70 56
112 25 16 -12 40 -21 55 -21 16 0 34 -10 46 -25 15 -19 29 -25 57 -25 25 0 44
-7 56 -20 13 -14 31 -20 60 -20 26 0 48 -6 55 -15 7 -8 27 -15 46 -15 24 0 34
-5 39 -21 5 -15 14 -20 38 -19 56 3 92 0 107 -10 12 -7 11 -12 -5 -30 -20 -22
-20 -22 4 -41 31 -25 44 -20 56 19 5 18 14 31 20 29 18 -6 17 -54 -4 -125 -12
-38 -21 -92 -21 -119 0 -28 -7 -70 -15 -94 -17 -46 -32 -283 -30 -439 5 -306
7 -406 6 -418 -1 -7 -13 -11 -33 -10 -29 3 -33 0 -36 -24 -3 -22 2 -30 21 -37
14 -5 34 -7 45 -4 25 6 34 -21 36 -105 1 -52 -1 -56 -24 -62 -29 -7 -38 -41
-15 -60 9 -8 15 -29 15 -56 0 -38 4 -46 25 -56 13 -6 27 -20 31 -31 3 -11 18
-30 31 -41 15 -13 24 -30 22 -41 -4 -16 -7 -15 -34 11 -16 16 -41 35 -55 42
-14 7 -38 21 -55 32 -44 28 -147 80 -159 80 -6 1 -29 9 -51 20 -22 11 -53 19
-69 20 -16 0 -59 5 -95 11 -81 14 -274 -4 -338 -32 -23 -11 -52 -19 -65 -19
-13 0 -36 -9 -53 -20 -16 -11 -39 -20 -50 -21 -11 0 -42 -14 -70 -30 -27 -16
-61 -35 -75 -41 -31 -16 -203 -130 -224 -149 -9 -8 -27 -23 -42 -34 -80 -61
-257 -227 -319 -298 -27 -31 -67 -76 -89 -99 l-38 -42 -55 60 c-168 181 -283
290 -428 405 -101 80 -142 109 -154 109 -5 0 -16 7 -24 15 -17 16 -186 105
-200 105 -6 0 -28 8 -51 19 -23 10 -59 23 -81 29 -22 5 -53 15 -70 20 -16 6
-77 15 -135 20 -119 11 -280 -4 -342 -32 -21 -9 -46 -16 -56 -16 -11 0 -25 -6
-31 -14 -7 -8 -23 -17 -36 -20 -29 -7 -149 -87 -194 -129 l-34 -32 7 30 c4 17
14 37 22 46 9 10 14 38 14 79 0 62 14 75 22 21 5 -40 22 -34 57 19 40 62 36
95 -10 85 -36 -8 -41 3 -30 75 5 30 9 43 10 29 0 -14 10 -34 20 -43 18 -16 20
-16 38 11 11 15 23 36 26 45 9 25 -21 51 -49 44 -22 -6 -22 -6 -18 92 3 53 12
140 21 192 17 110 20 395 4 473 -6 29 -15 106 -20 173 -5 66 -14 130 -20 142
-12 23 -33 210 -25 224 3 4 14 8 26 8 11 0 31 9 45 20 17 13 34 18 49 14 17
-4 38 3 71 25 28 19 54 29 63 25 39 -16 50 -15 71 10 18 20 32 26 66 26 39 0
43 2 43 25 0 27 11 31 39 13 23 -14 51 -4 58 22 7 26 39 35 66 17 21 -13 22
-13 32 17 8 23 17 32 38 34 23 3 29 -2 38 -25 5 -15 28 -41 49 -57 31 -23 40
-37 40 -59 0 -26 3 -28 33 -25 40 4 41 22 4 63 -51 55 -98 127 -93 141 6 15
36 20 36 5z m2880 -1806 c0 -19 -4 -35 -10 -35 -11 0 -14 53 -3 63 11 12 13 8
13 -28z M4130 9050 c0 -22 31 -45 75 -56 17 -4 46 -15 65 -26 19 -10 42 -18
51 -18 9 0 22 -6 28 -14 7 -8 24 -17 38 -21 15 -3 38 -15 51 -26 14 -10 30
-19 37 -19 6 0 20 -9 30 -20 10 -11 22 -20 27 -20 4 0 44 -35 88 -77 80 -79
130 -143 130 -167 0 -7 9 -21 20 -31 11 -10 20 -29 20 -42 0 -14 9 -36 20 -50
11 -14 20 -32 20 -41 0 -8 5 -32 12 -54 9 -30 16 -38 29 -35 26 7 39 -14 46
-71 6 -51 43 -107 66 -99 19 6 20 56 2 100 -12 28 -18 74 -19 137 -1 73 -5
101 -18 120 -10 13 -18 34 -19 45 0 11 -16 47 -34 80 -19 33 -39 72 -46 88 -6
15 -14 27 -18 27 -4 0 -15 16 -24 35 -9 19 -21 35 -27 35 -5 0 -10 7 -10 15 0
22 -132 149 -181 174 -60 32 -74 12 -25 -34 21 -19 41 -35 46 -35 5 0 32 -28
59 -62 28 -35 57 -71 66 -80 8 -10 15 -22 15 -26 0 -5 9 -17 20 -27 11 -10 20
-26 20 -35 0 -10 6 -23 14 -29 8 -6 20 -26 27 -44 7 -18 21 -43 31 -56 10 -13
18 -35 18 -49 0 -14 7 -34 16 -43 18 -20 25 -86 9 -91 -5 -2 -13 17 -18 42 -5
25 -15 52 -22 60 -7 8 -16 26 -20 39 -9 29 -60 105 -118 174 -47 56 -229 207
-250 207 -8 0 -20 7 -27 15 -6 8 -22 17 -33 21 -12 4 -33 15 -46 25 -13 11
-33 19 -45 19 -12 0 -39 9 -61 20 -22 11 -52 20 -67 20 -15 0 -30 5 -33 10
-11 18 -35 11 -35 -10z M3775 7070 c-10 -11 -26 -20 -35 -20 -10 0 -29 -9 -43
-20 -14 -11 -34 -20 -44 -20 -11 0 -27 -6 -38 -13 -22 -17 -14 -61 13 -76 10
-5 38 -28 62 -50 25 -23 52 -41 60 -41 8 0 33 -10 55 -21 34 -18 57 -22 145
-22 95 0 110 3 155 27 47 26 123 80 166 119 29 26 21 60 -16 70 -32 10 -97 38
-157 68 -46 24 -105 24 -130 2 -18 -16 -21 -16 -47 0 -42 24 -123 23 -146 -3z
m105 -60 c0 -14 -55 -40 -85 -40 -31 0 -32 14 -3 34 25 18 88 22 88 6z m195
-6 c35 -23 31 -34 -12 -34 -21 -1 -49 -7 -63 -15 -28 -16 -126 -20 -135 -5 -3
5 20 17 52 26 32 9 65 22 73 30 19 19 55 18 85 -2z m50 -104 c-3 -5 -17 -10
-31 -10 -14 0 -22 4 -19 10 3 6 17 10 31 10 14 0 22 -4 19 -10z m-77 -37 c-19
-19 -152 -25 -178 -8 -16 11 44 20 145 23 46 2 48 1 33 -15z M2996 5124 c-3
-9 -6 -19 -6 -24 0 -17 32 -40 54 -40 13 0 29 -7 36 -15 15 -18 60 -20 60 -2
0 7 -20 31 -44 55 -46 44 -89 56 -100 26z M2676 5061 c-8 -12 119 -59 179 -66
28 -4 75 -13 105 -20 30 -8 87 -15 125 -16 81 -2 155 -18 213 -48 23 -12 50
-21 61 -21 11 0 35 -9 53 -20 18 -11 45 -20 61 -20 22 0 27 5 27 23 0 33 -19
47 -63 47 -27 0 -48 8 -69 25 -21 18 -36 23 -54 19 -19 -5 -32 0 -53 20 -21
20 -38 27 -67 26 -21 0 -46 0 -54 0 -8 1 -31 -2 -52 -5 -25 -5 -55 -1 -100 14
-39 13 -94 22 -143 23 -44 1 -91 8 -105 15 -29 15 -56 17 -64 4z M2167 5004
c-13 -13 -7 -61 8 -74 22 -19 37 0 33 41 -3 32 -24 49 -41 33z M5682 4958
c-25 -25 -7 -86 22 -75 26 10 42 53 26 72 -15 18 -32 19 -48 3z M4357 4885
c-40 -28 -45 -40 -21 -49 38 -15 83 -6 100 19 36 55 -14 73 -79 30z M3531
4866 c-9 -11 -6 -18 16 -33 37 -26 60 -34 78 -27 21 9 19 51 -4 64 -28 14 -77
12 -90 -4z M2191 4856 c-17 -20 3 -66 29 -66 25 0 34 21 26 55 -7 28 -36 34
-55 11z M4220 4853 c-34 -23 -41 -35 -28 -50 11 -14 56 -17 74 -5 17 11 36 51
29 62 -10 15 -48 12 -75 -7z M3685 4836 c-23 -17 -13 -45 17 -48 67 -4 91 11
63 42 -21 23 -53 26 -80 6z M4065 4824 c-18 -19 -16 -33 8 -48 19 -12 87 18
87 40 0 27 -70 33 -95 8z M5655 4811 c-13 -26 -13 -31 0 -44 17 -17 54 -11 62
9 3 8 2 25 -1 39 -9 35 -42 33 -61 -4z M3822 4817 c-8 -9 -7 -20 1 -37 11 -22
20 -25 67 -27 30 -1 68 -3 83 -4 31 -2 42 6 52 39 9 30 -16 39 -69 25 -32 -9
-44 -8 -60 3 -25 17 -60 18 -74 1z M2210 4726 c-6 -8 -10 -25 -8 -38 4 -28 39
-36 58 -14 10 13 9 20 -4 41 -19 29 -29 31 -46 11z M5633 4684 c-3 -10 -2 -29
4 -43 6 -18 6 -32 0 -43 -13 -20 -2 -48 18 -48 21 0 31 28 17 50 -8 13 -7 21
5 33 22 21 10 67 -18 67 -11 0 -22 -7 -26 -16z M2216 4594 c-19 -18 -19 -20
-6 -45 7 -12 21 -19 40 -19 27 0 30 3 30 34 0 45 -34 61 -64 30z M5627 4502
c-10 -10 -17 -26 -17 -35 0 -16 28 -37 49 -37 14 0 24 37 17 66 -8 29 -27 31
-49 6z M2237 4459 c-18 -24 -13 -45 13 -59 26 -14 46 13 34 47 -12 35 -29 39
-47 12z M5616 4364 c-22 -21 -20 -31 10 -50 23 -16 27 -16 41 -1 21 21 10 67
-16 67 -11 0 -27 -7 -35 -16z M2242 4334 c-27 -19 -28 -36 -2 -59 16 -15 22
-15 35 -5 18 15 20 54 2 68 -10 9 -19 7 -35 -4z M5626 4244 c-27 -27 -12 -64
26 -64 22 0 35 45 18 65 -16 19 -25 19 -44 -1z M2242 4195 c-24 -18 -29 -44
-10 -63 37 -37 78 17 45 61 -11 16 -14 16 -35 2z M5632 4118 c-17 -17 -15 -43
4 -63 23 -22 46 -1 42 39 -3 33 -25 45 -46 24z M2216 4047 c-24 -18 -15 -67
12 -67 30 0 54 24 50 51 -4 28 -34 36 -62 16z M5634 3976 c-8 -35 2 -58 23
-54 25 5 25 71 1 76 -12 2 -19 -5 -24 -22z M2200 3900 c-18 -34 -9 -65 20 -65
22 0 25 4 25 40 0 46 -26 60 -45 25z M5675 3766 c-18 -28 -6 -76 20 -76 24 0
40 45 27 75 -14 31 -27 32 -47 1z M3641 3418 c24 -29 51 -61 61 -71 10 -10 18
-23 18 -29 0 -6 7 -20 17 -30 18 -20 36 -49 54 -88 6 -14 20 -43 30 -66 11
-23 19 -50 19 -60 0 -10 9 -32 20 -49 11 -16 20 -44 20 -61 0 -17 7 -37 15
-44 24 -20 31 36 11 90 -10 25 -21 61 -25 81 -4 20 -15 47 -24 60 -10 13 -17
31 -17 40 0 9 -9 24 -20 34 -11 10 -20 24 -20 31 0 30 -76 124 -160 197 -41
35 -40 15 1 -35z M4208 3423 c-25 -21 -49 -45 -52 -53 -3 -8 -21 -36 -40 -61
-18 -25 -37 -59 -40 -76 -4 -18 -14 -37 -22 -44 -8 -6 -14 -20 -14 -31 0 -11
-9 -40 -19 -66 -22 -54 -33 -150 -18 -159 16 -10 37 28 37 67 0 19 8 46 17 59
9 14 20 47 24 74 5 27 15 57 24 67 8 9 15 26 15 37 0 11 9 28 20 38 11 10 20
23 20 29 0 10 43 77 70 107 54 62 46 66 -22 12z"/>
</g>
</svg>
