<?xml version="1.0" standalone="no"?>
<!DOCTYPE svg PUBLIC "-//W3C//DTD SVG 20010904//EN"
 "http://www.w3.org/TR/2001/REC-SVG-20010904/DTD/svg10.dtd">
<svg version="1.0" xmlns="http://www.w3.org/2000/svg"
 width="772.000000pt" height="1048.000000pt" viewBox="0 0 772.000000 1048.000000"
 preserveAspectRatio="xMidYMid meet">
<metadata>
Created by potrace 1.16, written by Peter Selinger 2001-2019
</metadata>
<g transform="translate(0.000000,1048.000000) scale(0.100000,-0.100000)"
fill="#000000" stroke="none">
<path d="M3743 9955 c-18 -7 -54 -17 -80 -21 -26 -3 -55 -12 -63 -19 -8 -7
-26 -16 -40 -20 -14 -4 -36 -16 -49 -26 -13 -11 -30 -19 -37 -19 -7 0 -46 -33
-87 -74 -67 -65 -81 -74 -124 -81 -26 -4 -55 -13 -63 -20 -8 -7 -26 -16 -38
-20 -59 -18 -190 -126 -238 -197 -16 -24 -33 -46 -37 -49 -10 -7 -26 -34 -54
-89 -10 -19 -21 -36 -25 -38 -4 -2 -12 -20 -19 -40 -6 -20 -16 -43 -22 -50
-13 -17 -44 -102 -61 -168 -7 -28 -18 -59 -23 -70 -6 -10 -14 -50 -17 -89 -4
-38 -13 -106 -21 -150 -8 -44 -17 -172 -20 -285 -4 -113 -11 -248 -16 -300 -5
-52 -14 -282 -19 -510 -5 -228 -16 -485 -24 -570 -8 -85 -17 -225 -21 -310 -4
-85 -11 -175 -16 -200 -5 -25 -13 -106 -19 -181 -5 -75 -14 -149 -20 -164 -6
-15 -15 -72 -21 -127 -5 -54 -15 -111 -20 -126 -6 -15 -15 -58 -20 -97 -5 -38
-15 -87 -23 -110 -8 -22 -17 -56 -20 -75 -5 -32 -12 -38 -66 -63 -33 -15 -68
-27 -78 -27 -10 0 -35 -9 -57 -20 -22 -11 -50 -20 -63 -20 -12 0 -36 -7 -51
-15 -16 -8 -48 -17 -72 -21 -24 -4 -55 -12 -69 -19 -14 -7 -41 -15 -60 -19
-64 -12 -183 -65 -265 -118 -87 -55 -202 -171 -263 -262 -55 -83 -135 -268
-151 -346 -5 -26 -14 -39 -39 -50 -37 -18 -82 -78 -82 -112 0 -13 -9 -41 -19
-63 -10 -23 -21 -63 -25 -90 -5 -27 -14 -65 -21 -85 -7 -19 -16 -63 -20 -98
-3 -34 -13 -81 -21 -105 -18 -52 -30 -391 -19 -551 6 -99 9 -111 33 -133 17
-16 35 -23 57 -21 41 2 58 -8 46 -30 -4 -9 -11 -79 -15 -155 -4 -75 -11 -149
-16 -163 -6 -14 -15 -91 -20 -171 -6 -80 -17 -173 -24 -207 -8 -33 -17 -108
-21 -166 -3 -57 -13 -131 -20 -165 -8 -33 -15 -87 -15 -120 -1 -33 -7 -94 -15
-135 -8 -41 -19 -123 -25 -182 -5 -59 -16 -138 -24 -175 -8 -38 -17 -103 -20
-146 -3 -43 -12 -102 -20 -130 -18 -64 -29 -237 -17 -255 4 -8 19 -12 32 -10
21 3 25 11 36 75 6 40 15 77 18 83 4 6 11 57 16 113 5 56 16 124 24 152 7 27
16 91 19 141 4 50 11 106 17 125 5 19 14 88 19 154 6 66 15 136 20 155 6 19
15 91 21 160 5 69 16 154 24 190 7 36 16 110 19 165 3 55 11 116 16 135 6 19
15 98 21 175 5 77 14 159 19 182 6 23 13 80 16 127 4 47 12 90 19 96 6 5 51
16 101 24 49 8 101 19 116 25 14 5 55 13 90 17 34 4 80 13 101 20 21 8 75 17
120 20 45 4 95 13 111 21 41 21 46 8 46 -127 0 -63 6 -155 14 -205 27 -176 28
-225 6 -323 -11 -51 -20 -113 -20 -138 0 -25 -9 -83 -19 -128 -11 -44 -22
-113 -25 -152 -4 -39 -13 -92 -21 -119 -8 -26 -15 -64 -15 -84 0 -20 -7 -65
-15 -101 -8 -36 -20 -108 -25 -160 -6 -52 -17 -120 -24 -150 -8 -30 -17 -85
-20 -122 -4 -37 -12 -84 -20 -105 -7 -21 -16 -72 -19 -113 -4 -41 -14 -97 -22
-124 -8 -27 -15 -65 -15 -85 0 -20 -7 -67 -16 -106 -18 -82 -36 -272 -28 -297
8 -27 52 -23 63 5 13 32 39 191 46 276 4 40 11 85 16 100 6 14 15 64 20 111 5
47 16 105 23 130 8 25 17 77 20 116 3 39 13 90 21 114 8 23 15 66 15 94 0 29
9 86 20 127 11 41 20 90 20 109 0 19 7 64 15 100 8 36 19 107 25 158 6 51 15
105 21 119 5 15 14 74 20 131 9 98 23 151 36 138 3 -3 12 -36 19 -73 17 -87
42 -190 56 -228 6 -16 16 -55 23 -85 7 -30 20 -77 29 -103 9 -26 16 -59 16
-73 0 -14 6 -37 14 -52 8 -15 19 -53 25 -85 6 -31 15 -65 20 -76 6 -10 15 -43
20 -72 12 -63 36 -158 62 -247 11 -34 19 -78 19 -98 0 -19 6 -50 14 -68 8 -19
17 -65 21 -103 4 -37 14 -93 22 -123 10 -38 16 -126 20 -280 5 -238 8 -250 54
-250 41 0 49 26 49 148 -1 64 -5 149 -10 187 -6 39 -16 126 -24 195 -7 69 -18
137 -24 152 -6 14 -14 55 -18 90 -4 34 -11 74 -17 88 -5 14 -15 54 -23 90 -16
83 -41 182 -59 240 -8 25 -17 63 -20 85 -4 22 -13 55 -21 73 -9 18 -19 57 -24
87 -5 30 -13 62 -18 72 -6 10 -13 41 -17 68 -4 28 -13 61 -20 75 -7 14 -16 48
-20 75 -4 28 -14 62 -21 76 -7 14 -16 50 -20 80 -4 30 -13 69 -20 88 -8 19
-18 68 -23 111 -5 42 -13 86 -19 97 -6 11 -16 67 -21 124 -6 57 -15 120 -21
140 -10 37 -31 388 -23 402 2 4 15 7 28 7 13 0 53 7 88 15 164 38 854 38 1042
1 39 -8 96 -17 128 -20 32 -4 72 -13 87 -21 16 -8 44 -15 62 -15 18 -1 51 -8
73 -16 22 -8 65 -21 95 -28 30 -8 69 -18 85 -24 110 -38 200 -62 235 -62 22 0
73 11 112 25 39 14 83 25 98 25 14 0 35 7 47 15 12 8 43 18 70 22 26 3 59 11
73 18 14 7 48 16 75 20 28 3 67 13 87 20 20 8 67 17 105 21 37 3 93 12 124 20
144 36 849 35 994 0 33 -9 81 -15 107 -16 26 0 49 -3 51 -8 9 -16 -13 -374
-26 -428 -8 -33 -18 -95 -22 -138 -3 -44 -13 -95 -21 -114 -8 -19 -14 -49 -14
-66 0 -17 -7 -56 -15 -86 -8 -30 -20 -84 -26 -120 -6 -36 -17 -76 -24 -90 -7
-14 -16 -47 -20 -75 -4 -27 -13 -62 -21 -77 -8 -15 -14 -36 -14 -47 0 -11 -9
-49 -19 -83 -31 -100 -52 -179 -62 -233 -5 -27 -15 -61 -23 -75 -7 -14 -16
-49 -20 -79 -4 -30 -12 -63 -17 -73 -6 -11 -16 -54 -24 -96 -7 -42 -18 -95
-24 -117 -30 -114 -44 -188 -52 -260 -5 -44 -15 -120 -24 -169 -19 -111 -21
-386 -3 -404 15 -15 40 -15 61 1 15 10 18 44 26 243 6 137 16 256 24 290 8 33
18 90 21 128 4 38 11 78 17 88 6 10 15 47 20 81 6 34 16 82 24 107 16 50 39
143 59 235 7 33 17 69 23 80 6 11 14 42 18 70 4 27 13 61 20 75 7 14 15 46 18
73 4 26 13 61 22 77 8 16 15 40 15 54 0 14 9 52 19 83 11 32 22 80 26 107 4
27 13 59 20 70 7 12 15 45 18 75 7 59 14 73 27 51 12 -19 30 -127 30 -181 0
-24 9 -77 20 -118 11 -41 20 -93 20 -116 0 -23 7 -64 15 -91 8 -27 19 -95 24
-151 5 -55 14 -110 20 -120 5 -11 13 -55 16 -99 4 -43 13 -101 20 -129 8 -27
18 -94 24 -147 5 -53 14 -105 20 -116 6 -11 15 -64 20 -118 5 -55 14 -112 21
-129 6 -16 15 -83 20 -150 4 -66 12 -128 15 -138 8 -19 47 -32 70 -23 20 7 20
93 -1 171 -8 33 -18 92 -20 130 -3 39 -14 106 -25 149 -10 44 -19 100 -19 124
0 24 -7 70 -15 102 -8 32 -19 97 -24 146 -5 49 -14 101 -20 117 -6 15 -14 64
-17 110 -4 45 -13 100 -21 121 -7 21 -16 71 -19 110 -4 39 -15 104 -25 145
-11 41 -19 95 -19 120 0 25 -7 71 -15 101 -9 30 -18 100 -21 155 -4 55 -15
131 -27 169 -17 59 -19 85 -14 185 4 64 14 151 22 194 8 43 15 130 15 192 0
114 7 138 34 116 8 -7 54 -16 102 -22 49 -5 109 -16 134 -23 25 -8 74 -17 110
-21 36 -3 85 -12 110 -20 25 -7 69 -16 99 -20 56 -6 90 -19 103 -39 4 -6 8
-49 8 -96 1 -47 6 -107 11 -135 5 -27 14 -108 20 -180 5 -71 17 -167 25 -213
8 -46 19 -140 24 -209 5 -68 14 -141 19 -161 6 -20 15 -91 20 -157 5 -66 14
-132 20 -148 6 -15 13 -71 17 -125 3 -53 12 -122 20 -153 7 -31 18 -103 23
-160 5 -57 14 -116 20 -132 6 -15 15 -74 20 -131 12 -124 38 -209 65 -214 10
-2 22 2 27 10 14 21 10 141 -6 194 -8 27 -18 87 -21 134 -3 47 -12 110 -20
141 -7 31 -18 103 -24 160 -5 57 -17 133 -25 169 -8 36 -15 93 -15 128 0 35
-7 95 -15 135 -8 40 -19 128 -24 197 -6 69 -15 141 -21 160 -5 19 -13 84 -16
145 -3 60 -12 144 -20 185 -8 41 -19 146 -24 233 -6 87 -15 167 -20 177 -17
33 -11 39 42 42 50 3 54 5 75 43 22 39 23 49 22 285 0 178 -4 261 -14 305 -8
33 -17 94 -21 135 -4 41 -13 87 -20 101 -7 14 -16 50 -20 80 -4 30 -12 65 -19
79 -7 14 -15 43 -19 65 -4 22 -19 68 -33 102 -23 56 -30 63 -59 69 -19 3 -34
11 -34 18 -1 6 -9 29 -20 51 -11 22 -19 49 -20 60 0 12 -9 38 -20 60 -11 22
-20 44 -20 50 0 6 -13 35 -30 65 -16 30 -35 66 -42 80 -38 77 -168 209 -273
275 -43 28 -114 61 -157 75 -21 6 -40 16 -43 21 -4 5 -17 9 -31 9 -14 0 -41 8
-62 19 -20 10 -57 21 -81 25 -24 4 -53 13 -64 21 -12 8 -33 15 -47 15 -14 0
-43 9 -65 20 -22 11 -48 20 -59 20 -10 0 -37 9 -60 19 -23 11 -52 22 -66 25
-34 7 -67 76 -80 165 -5 38 -14 79 -19 92 -4 13 -12 58 -15 99 -4 41 -14 98
-21 125 -8 28 -17 95 -21 150 -3 55 -13 126 -20 158 -8 32 -19 133 -25 225 -5
92 -14 194 -19 227 -6 33 -15 215 -20 405 -5 190 -14 399 -20 465 -5 66 -12
237 -16 380 -3 166 -13 311 -25 402 -10 79 -19 164 -19 189 0 25 -7 69 -15 97
-8 29 -19 84 -24 122 -12 85 -37 190 -56 230 -8 17 -17 42 -21 58 -7 29 -77
173 -109 222 -93 144 -290 331 -415 392 -14 7 -32 17 -40 21 -37 22 -108 52
-135 58 -16 4 -39 13 -50 20 -11 8 -34 14 -51 14 -17 0 -60 9 -94 20 -78 25
-324 28 -377 5z m313 -84 c61 -6 126 -16 145 -25 19 -8 50 -18 70 -21 21 -3
42 -12 49 -20 7 -8 23 -15 35 -15 12 0 34 -9 48 -20 14 -11 32 -20 40 -20 8 0
25 -8 38 -17 13 -10 31 -22 40 -28 77 -48 180 -144 249 -230 46 -58 63 -86 94
-152 9 -17 20 -34 25 -37 5 -4 13 -21 17 -39 3 -17 15 -48 25 -67 11 -19 19
-48 19 -65 0 -16 7 -38 15 -49 7 -10 17 -44 20 -75 4 -31 13 -73 21 -93 7 -21
18 -85 24 -143 5 -59 12 -111 15 -116 7 -11 26 -351 20 -357 -2 -3 -10 7 -16
21 -21 47 -71 46 -93 -1 -23 -51 -51 -92 -61 -89 -5 2 -19 35 -31 73 -12 38
-29 83 -38 99 -9 17 -16 33 -16 37 0 17 -70 109 -134 176 -96 101 -217 180
-446 292 -58 28 -112 56 -120 61 -8 5 -22 12 -30 15 -8 3 -38 17 -65 30 -28
13 -55 24 -61 24 -7 0 -17 7 -24 15 -7 8 -20 15 -29 15 -9 0 -34 9 -56 20 -22
11 -44 20 -50 20 -6 0 -27 9 -48 19 -20 10 -49 22 -64 26 -16 3 -35 12 -43 20
-8 7 -26 16 -40 20 -14 4 -32 13 -40 20 -8 7 -24 15 -34 16 -28 5 -76 88 -76
130 0 11 -7 34 -17 52 -12 23 -18 67 -21 158 l-5 127 29 36 c16 20 35 36 42
36 6 0 12 5 12 11 0 5 15 17 33 25 17 8 43 22 57 29 14 8 34 15 45 15 11 0 31
7 44 17 17 11 57 18 135 23 61 4 118 8 126 8 8 1 65 -2 126 -7z m-733 -304
c-4 -35 0 -68 11 -100 9 -26 16 -61 16 -77 0 -17 9 -47 20 -67 11 -21 20 -45
20 -54 0 -9 7 -22 15 -29 21 -17 3 -40 -87 -112 -86 -67 -257 -276 -258 -314
0 -6 -6 -17 -14 -23 -8 -7 -18 -25 -21 -41 -3 -16 -13 -34 -21 -41 -8 -6 -14
-18 -14 -27 0 -9 -8 -34 -19 -56 -10 -23 -23 -59 -29 -81 -6 -22 -15 -53 -20
-70 -17 -51 -42 -158 -45 -189 -3 -43 -20 -42 -52 4 -21 31 -34 40 -56 40 -30
0 -59 -31 -59 -64 0 -11 -3 -17 -6 -14 -3 3 -1 48 5 99 6 52 15 168 21 259 5
91 17 194 25 230 8 36 19 88 24 115 32 166 154 407 257 507 52 51 100 88 112
88 5 0 15 6 21 14 6 8 31 19 56 25 24 6 47 15 50 21 3 5 17 10 30 10 22 0 23
-2 18 -53z m176 -431 c12 -14 67 -42 176 -90 33 -15 73 -33 88 -41 16 -8 36
-15 45 -15 9 0 31 -8 47 -18 17 -11 47 -22 67 -26 20 -3 41 -13 47 -20 7 -8
27 -17 45 -20 19 -4 39 -13 46 -21 7 -8 20 -15 30 -15 9 0 29 -9 43 -20 14
-11 32 -20 40 -20 8 0 25 -9 39 -19 13 -11 37 -23 51 -26 15 -4 30 -11 33 -16
3 -5 20 -16 37 -25 52 -24 92 -47 97 -54 3 -4 20 -15 38 -24 17 -9 32 -21 32
-26 0 -6 6 -10 14 -10 15 0 152 -130 174 -165 20 -32 40 -68 53 -95 6 -14 20
-43 30 -66 11 -23 19 -52 19 -64 0 -13 8 -32 18 -43 28 -31 30 -207 3 -296
-12 -38 -21 -81 -21 -95 0 -14 -9 -52 -19 -83 -11 -32 -22 -78 -25 -102 -4
-24 -13 -56 -21 -72 -8 -15 -15 -40 -15 -55 0 -27 -10 -53 -70 -174 -42 -86
-54 -106 -73 -128 -10 -10 -17 -21 -17 -25 0 -7 -48 -79 -58 -87 -4 -3 -19
-21 -34 -41 -40 -54 -143 -154 -194 -189 -12 -8 -42 -28 -66 -45 -46 -31 -109
-64 -168 -86 -54 -20 -195 -23 -244 -6 -23 9 -55 18 -73 22 -17 3 -37 13 -44
21 -6 8 -17 14 -23 14 -11 0 -38 18 -104 67 -55 42 -185 170 -224 222 -24 31
-45 58 -48 61 -5 4 -34 50 -68 105 -7 11 -18 31 -24 45 -7 14 -20 36 -30 49
-10 13 -18 32 -18 41 0 10 -7 23 -15 30 -8 7 -17 27 -21 46 -3 19 -15 51 -25
71 -11 21 -19 48 -19 61 0 12 -7 36 -15 51 -8 16 -17 48 -21 72 -3 24 -14 70
-25 102 -10 31 -19 72 -19 91 0 18 -7 53 -15 76 -17 49 -20 169 -5 220 6 19
15 73 21 119 5 46 14 93 21 104 6 11 17 43 24 71 17 68 48 152 61 168 6 7 15
27 19 43 3 17 12 37 19 45 7 8 16 25 20 38 12 39 103 170 158 227 66 67 168
154 183 155 6 0 17 -6 23 -14z m-684 -926 c22 -24 42 -108 51 -214 3 -45 11
-90 16 -100 10 -19 38 -140 38 -163 0 -7 -4 -13 -10 -13 -11 0 -60 93 -60 115
0 8 -9 32 -20 52 -11 21 -20 55 -20 76 0 21 -7 52 -16 69 -9 18 -19 68 -22
115 -4 69 -2 83 10 83 8 0 23 -9 33 -20z m2188 -11 c-2 -13 -7 -74 -11 -134
-6 -67 -16 -123 -26 -142 -9 -18 -16 -42 -16 -55 0 -13 -6 -34 -14 -48 -8 -14
-26 -49 -41 -77 -14 -29 -30 -53 -35 -53 -20 0 -19 22 5 88 14 38 25 82 25 98
0 16 9 61 20 99 11 38 20 91 20 116 0 33 6 51 20 64 11 10 20 28 20 40 0 12 3
25 7 29 13 13 28 -1 26 -25z m-2268 -233 c8 -27 15 -61 15 -75 0 -14 9 -39 20
-56 11 -16 20 -37 20 -46 0 -9 9 -26 20 -39 11 -13 20 -29 20 -37 0 -19 60
-79 86 -87 22 -7 74 -106 74 -140 0 -9 9 -34 19 -54 11 -20 34 -66 52 -102 46
-94 62 -124 71 -135 15 -18 58 -86 58 -91 0 -3 24 -35 54 -72 l54 -67 -9 -215
c-12 -302 -25 -443 -43 -479 -9 -16 -16 -38 -16 -47 0 -27 -58 -137 -98 -185
-45 -53 -146 -149 -157 -149 -5 0 -17 -7 -27 -17 -21 -18 -32 -25 -119 -70
-34 -18 -66 -33 -72 -33 -5 0 -20 -9 -34 -20 -14 -11 -34 -20 -44 -20 -11 0
-36 -9 -56 -20 -21 -11 -47 -20 -58 -20 -11 0 -29 -9 -38 -21 -21 -24 -43 -20
-39 7 14 80 21 113 30 139 6 17 13 62 16 102 3 39 11 84 17 100 6 15 15 74 20
130 5 55 15 130 23 165 8 34 17 117 20 183 4 66 11 138 17 160 5 22 16 186 24
365 8 179 19 404 25 500 5 96 10 268 10 381 0 240 10 321 23 194 4 -44 14
-102 22 -129z m2358 2 c4 -29 9 -197 12 -373 3 -176 12 -396 21 -490 8 -93 18
-258 23 -365 5 -107 14 -207 20 -222 5 -15 13 -73 16 -130 3 -57 13 -134 21
-173 8 -38 19 -110 24 -160 5 -49 16 -119 25 -155 8 -36 15 -80 15 -97 0 -18
7 -50 16 -72 9 -22 14 -48 12 -57 -3 -16 -4 -17 -20 -1 -9 9 -24 17 -33 17
-10 0 -34 8 -54 18 -20 10 -56 28 -81 39 -25 11 -56 25 -70 32 -14 6 -32 15
-40 19 -8 5 -35 19 -60 31 -149 76 -281 203 -341 328 -16 34 -29 69 -29 76 0
8 -7 32 -16 53 -18 44 -33 210 -42 483 l-7 194 33 51 c19 28 42 60 53 72 10
11 19 24 19 30 0 5 17 34 38 64 20 30 50 82 66 115 15 33 34 72 42 87 8 14 14
34 14 45 0 10 9 35 20 56 11 20 20 52 20 69 0 29 7 37 51 63 42 25 109 100
109 121 0 3 9 17 20 31 11 14 20 33 20 42 0 9 9 33 20 54 11 20 20 47 20 59 0
33 20 98 29 98 5 0 11 -24 14 -52z m-663 -1290 c1 -117 5 -233 10 -258 6 -25
16 -79 24 -120 8 -41 21 -88 30 -105 9 -16 16 -37 16 -46 0 -9 7 -22 15 -29 8
-6 17 -22 21 -33 19 -64 197 -237 309 -301 17 -10 48 -28 70 -41 45 -27 82
-45 94 -45 5 0 14 -6 20 -14 7 -8 27 -17 45 -20 19 -4 39 -13 46 -21 7 -8 19
-15 28 -15 9 0 34 -8 56 -18 50 -22 130 -50 175 -62 19 -5 48 -15 65 -23 29
-14 64 -27 191 -71 28 -9 73 -23 100 -30 28 -7 59 -17 70 -23 11 -6 40 -13 64
-17 24 -4 53 -13 64 -21 12 -8 28 -15 36 -15 7 0 32 -8 55 -19 23 -10 52 -24
66 -30 68 -32 104 -57 159 -111 60 -59 117 -130 130 -160 6 -14 15 -32 20 -40
12 -19 53 -111 80 -177 12 -28 21 -65 21 -82 0 -18 7 -34 17 -39 28 -16 8 -42
-32 -42 -20 0 -48 -6 -63 -14 -15 -8 -50 -17 -77 -21 -28 -4 -61 -13 -75 -20
-14 -7 -50 -16 -80 -20 -30 -4 -66 -13 -80 -20 -14 -7 -45 -15 -69 -19 -24 -4
-55 -13 -70 -20 -14 -8 -49 -17 -76 -21 -28 -5 -59 -14 -70 -21 -11 -7 -40
-16 -65 -20 -25 -4 -61 -15 -80 -26 -19 -10 -44 -18 -55 -18 -12 0 -38 -9 -60
-20 -22 -11 -51 -20 -66 -20 -15 0 -32 -7 -39 -15 -7 -8 -28 -17 -49 -21 -20
-4 -52 -15 -71 -25 -19 -11 -44 -19 -56 -19 -12 0 -27 -6 -33 -14 -7 -8 -27
-18 -44 -21 -18 -4 -50 -15 -72 -25 -115 -53 -133 -60 -147 -60 -9 0 -21 -7
-28 -15 -7 -8 -17 -15 -23 -15 -9 0 -104 -42 -137 -61 -8 -5 -26 -14 -40 -19
-14 -6 -32 -15 -40 -20 -8 -6 -26 -15 -40 -20 -14 -6 -32 -14 -40 -20 -8 -5
-46 -26 -85 -46 -104 -54 -125 -66 -186 -107 -31 -20 -61 -37 -66 -37 -5 0
-18 -9 -28 -20 -10 -11 -22 -20 -27 -20 -5 0 -32 -18 -61 -40 -29 -22 -63 -48
-76 -57 -13 -10 -33 -28 -44 -40 -42 -47 -52 -10 -12 43 14 18 25 39 25 48 0
8 14 36 31 61 17 25 29 51 26 58 -7 18 -105 -90 -112 -124 -3 -15 -12 -30 -19
-32 -8 -3 -18 -19 -24 -36 -9 -24 -8 -34 4 -45 18 -19 18 -30 -1 -22 -9 3 -19
-3 -26 -17 -15 -28 -28 -37 -57 -37 -40 0 -72 29 -72 66 0 18 -6 37 -13 41 -7
4 -30 34 -51 66 -41 63 -109 137 -126 137 -18 0 -11 -19 25 -70 19 -27 35 -52
35 -56 0 -3 21 -32 46 -65 25 -32 42 -59 39 -59 -14 0 -54 26 -120 79 -38 31
-128 95 -200 142 -155 101 -142 93 -280 164 -60 31 -117 60 -125 65 -8 5 -42
21 -75 35 -33 15 -67 30 -75 36 -8 5 -26 14 -40 19 -37 16 -80 35 -130 59 -25
11 -49 21 -54 21 -5 0 -30 9 -55 21 -25 11 -64 29 -86 39 -22 10 -57 24 -77
30 -21 6 -40 16 -43 21 -4 5 -16 9 -28 9 -13 0 -40 9 -62 20 -22 11 -46 20
-55 20 -9 0 -33 9 -55 20 -22 11 -48 20 -60 20 -11 0 -38 9 -61 19 -23 10 -61
22 -85 26 -24 4 -55 13 -69 20 -14 7 -47 15 -74 19 -27 3 -60 13 -72 21 -13 8
-37 15 -54 15 -17 0 -52 8 -78 19 -26 10 -69 23 -97 29 -27 5 -63 14 -80 20
-39 13 -149 41 -203 51 -23 4 -45 11 -49 15 -4 3 3 24 15 45 12 21 22 47 22
58 0 10 9 36 20 58 11 22 20 46 21 55 0 8 13 38 29 65 16 28 37 64 46 80 28
50 121 161 166 198 41 33 72 52 128 78 14 6 37 17 51 25 14 7 43 18 65 23 21
5 57 16 79 25 22 8 52 15 66 16 15 0 46 9 70 20 24 11 54 20 67 20 12 0 39 9
59 20 21 11 46 20 55 20 10 0 35 9 55 20 21 11 46 20 56 20 10 0 35 9 57 20
22 11 48 20 59 20 11 0 35 9 53 20 18 11 41 20 50 20 10 0 32 9 50 20 18 11
40 20 48 20 13 0 78 28 120 52 8 4 26 13 40 19 14 6 32 15 40 20 8 5 26 15 40
21 14 7 41 23 60 36 19 12 44 28 54 35 44 28 134 107 176 155 65 73 66 74 101
144 17 35 36 72 42 83 5 11 16 51 23 90 8 38 18 90 23 115 6 25 10 140 11 257
0 118 4 214 9 218 5 3 18 -5 28 -18 37 -46 230 -187 256 -187 7 0 30 -10 52
-22 35 -19 56 -21 180 -22 128 -1 144 1 180 22 22 12 45 22 52 22 27 0 216
139 261 193 13 15 28 27 33 27 5 0 9 -92 9 -212z m2194 -2104 c3 -9 6 -24 6
-35 0 -11 6 -30 14 -42 8 -12 18 -44 22 -72 3 -27 13 -62 20 -77 8 -14 16 -53
20 -85 3 -32 12 -76 20 -98 20 -56 42 -379 33 -495 -4 -52 -8 -110 -8 -129 -1
-31 -3 -33 -28 -27 -16 4 -61 11 -102 17 -40 5 -85 16 -100 23 -14 7 -55 17
-91 20 -35 4 -72 12 -82 17 -10 6 -56 14 -102 19 -46 6 -99 16 -117 24 -19 7
-68 16 -109 20 -41 4 -99 13 -130 20 -30 8 -100 17 -155 21 -55 3 -138 13
-184 21 -101 17 -658 20 -742 3 -30 -5 -101 -16 -159 -23 -95 -12 -164 -26
-285 -57 -22 -5 -65 -16 -95 -23 -30 -7 -65 -18 -77 -24 -27 -15 -56 -16 -48
-2 3 6 38 31 77 58 39 26 83 55 97 65 14 9 40 24 56 33 17 8 48 26 70 40 22
13 54 31 70 40 17 8 48 26 70 39 22 14 51 29 65 35 14 5 32 15 40 20 8 6 26
15 40 21 14 6 32 15 40 20 8 5 26 14 40 20 14 5 57 25 95 44 132 63 184 85
198 85 8 0 20 6 26 14 7 8 27 18 44 22 18 4 48 15 67 25 19 11 40 19 47 19 7
0 30 9 50 20 21 11 45 20 53 20 9 0 33 9 55 20 22 11 46 20 55 20 9 0 33 9 55
20 22 11 47 20 57 20 10 0 29 6 41 14 12 8 45 19 72 24 28 6 68 17 90 26 22 8
50 15 63 16 13 0 35 6 50 14 15 8 50 17 77 21 28 4 61 13 75 20 14 7 48 16 75
20 28 4 61 13 75 20 14 7 48 16 75 20 28 4 62 14 76 21 14 7 50 16 80 20 30 4
72 15 94 25 49 23 61 23 69 3z m-5354 -15 c30 -6 80 -18 110 -26 30 -8 81 -18
113 -23 32 -6 71 -17 87 -25 16 -8 42 -15 57 -15 15 -1 46 -8 68 -16 22 -9 62
-20 90 -26 27 -5 61 -15 75 -23 14 -7 47 -16 74 -20 27 -4 59 -13 70 -20 12
-7 39 -16 61 -20 22 -3 49 -12 60 -19 11 -7 38 -16 59 -20 22 -4 49 -14 60
-22 11 -8 30 -14 41 -14 11 0 38 -9 59 -19 21 -11 52 -23 69 -27 18 -3 41 -13
52 -20 11 -8 26 -14 34 -14 13 0 53 -17 146 -61 22 -10 44 -19 48 -19 5 0 32
-11 60 -24 29 -13 59 -26 67 -30 8 -3 22 -10 30 -15 8 -4 80 -41 160 -81 80
-40 163 -83 185 -96 22 -12 51 -28 65 -33 14 -6 32 -16 40 -21 8 -6 25 -14 37
-20 12 -5 44 -24 70 -42 26 -19 60 -39 76 -46 15 -6 27 -16 27 -22 0 -5 6 -10
13 -10 11 0 109 -68 132 -92 12 -12 -28 -5 -72 14 -15 6 -53 17 -83 24 -30 6
-68 16 -85 22 -56 20 -170 44 -272 57 -56 8 -127 18 -159 24 -92 17 -661 14
-764 -4 -47 -8 -128 -18 -180 -21 -52 -3 -111 -10 -130 -15 -19 -5 -82 -16
-140 -24 -58 -8 -130 -21 -160 -30 -30 -8 -69 -15 -86 -15 -17 0 -49 -6 -71
-14 -22 -8 -71 -17 -109 -21 -38 -4 -80 -12 -94 -17 -14 -6 -56 -16 -95 -23
-38 -8 -80 -17 -92 -20 -34 -11 -44 27 -50 191 -4 105 -2 165 10 235 9 52 19
126 23 164 3 39 12 84 18 100 7 17 16 59 20 94 4 35 13 80 21 100 7 20 16 53
20 75 3 21 14 54 23 73 13 27 21 33 37 29 11 -3 45 -11 75 -17z M3698 7391
c-14 -12 -33 -21 -41 -21 -7 0 -22 -9 -32 -20 -10 -11 -26 -20 -35 -20 -27 0
-43 -25 -31 -48 15 -29 133 -132 151 -132 8 -1 33 -9 55 -20 58 -28 200 -28
255 0 22 11 45 20 53 20 8 0 22 9 32 20 10 11 23 20 29 20 20 0 86 80 86 104
0 29 -67 76 -107 76 -16 0 -41 8 -58 17 -23 13 -65 17 -180 21 -141 4 -152 3
-177 -17z m224 -56 c77 -17 111 -34 68 -36 -62 -2 -129 3 -180 12 -64 13 -72
17 -65 30 9 14 95 11 177 -6z m-214 -63 c58 -39 191 -56 306 -38 66 10 58 -10
-14 -34 -101 -35 -200 -21 -322 46 -28 15 -34 25 -21 37 10 11 23 8 51 -11z
m417 9 c3 -6 -3 -15 -14 -21 -21 -11 -37 2 -26 20 8 13 32 13 40 1z M2611
5406 c-22 -27 3 -43 78 -50 37 -3 87 -12 110 -21 23 -8 85 -19 139 -24 53 -6
111 -15 128 -20 17 -5 77 -12 135 -16 57 -4 139 -16 181 -27 95 -24 143 -22
143 7 0 28 -136 74 -222 74 -34 1 -92 7 -130 15 -37 8 -113 17 -168 21 -55 3
-122 12 -150 20 -27 7 -81 16 -120 19 -38 4 -79 9 -91 12 -12 3 -26 -1 -33
-10z M5040 5405 c-58 -7 -125 -17 -150 -23 -25 -6 -90 -13 -146 -16 -55 -3
-132 -12 -170 -20 -38 -8 -100 -17 -137 -21 -37 -3 -82 -12 -100 -20 -18 -7
-44 -16 -58 -19 -28 -6 -44 -30 -33 -48 8 -13 101 -3 159 16 22 8 80 17 130
21 49 4 99 11 112 16 12 4 77 13 144 19 67 5 145 17 173 24 28 8 77 17 109 21
45 5 66 13 90 36 32 28 32 28 7 27 -14 0 -72 -6 -130 -13z M3730 5187 c0 -17
62 -77 80 -77 8 0 24 -7 34 -15 26 -20 60 -19 99 1 18 9 39 20 46 24 28 13 56
59 44 71 -8 8 -27 4 -69 -16 -55 -26 -60 -27 -111 -15 -29 8 -58 19 -64 27
-15 17 -59 17 -59 0z"/>
</g>
</svg>
